<?xml version="1.0" encoding="UTF-8"?>
<svg version="1.1" xmlns="http://www.w3.org/2000/svg" width="500" height="500">
<path d="M0 0 C2.22207403 2.06905498 4.42652626 4.15590866 6.625 6.25 C7.17478516 6.77110352 7.72457031 7.29220703 8.29101562 7.82910156 C16.04844684 15.22646399 22.8895256 22.98953589 29.32958984 31.55322266 C30.5701629 33.17817229 31.85648936 34.76788224 33.14453125 36.35546875 C40.4012331 45.37206365 46.09941567 55.09644282 51.625 65.25 C51.98835449 65.91338379 52.35170898 66.57676758 52.72607422 67.26025391 C63.11077702 86.44386717 70.66607997 107.03728429 75.625 128.25 C75.82319336 129.08305664 76.02138672 129.91611328 76.22558594 130.77441406 C90.83004765 193.40366558 78.68440409 261.44726326 45.625 316.25 C42.18518443 321.74993782 38.49470076 327.04529433 34.625 332.25 C34.17801758 332.85247559 33.73103516 333.45495117 33.27050781 334.07568359 C26.60110673 342.98022233 19.34251161 351.24407314 11.625 359.25 C11.09084473 359.80606934 10.55668945 360.36213867 10.00634766 360.93505859 C2.94386691 368.24939601 -4.31300465 375.02711119 -12.375 381.25 C-13.28378906 381.96414063 -14.19257813 382.67828125 -15.12890625 383.4140625 C-50.56331483 410.70096761 -92.74356044 428.7572887 -137.25732422 433.99975586 C-138.62041996 434.16083185 -139.9818084 434.33751609 -141.34033203 434.53344727 C-149.18515687 435.58621192 -157.10033928 435.44974559 -165 435.4375 C-165.77711334 435.43656342 -166.55422668 435.43562683 -167.35488892 435.43466187 C-204.45877576 435.33795156 -240.90057839 428.91827666 -274.375 412.25 C-275.28378906 411.80108398 -276.19257813 411.35216797 -277.12890625 410.88964844 C-289.42673153 404.76939251 -301.23287194 398.29709249 -312.375 390.25 C-313.39335937 389.52425781 -314.41171875 388.79851562 -315.4609375 388.05078125 C-334.26294132 374.3070593 -352.44268062 357.96997095 -366.375 339.25 C-367.07254395 338.34241943 -367.07254395 338.34241943 -367.78417969 337.41650391 C-392.41282362 305.32486938 -408.14987988 267.97602441 -415.375 228.25 C-415.60832031 226.98414063 -415.84164063 225.71828125 -416.08203125 224.4140625 C-418.53799718 209.25421526 -418.68231373 193.56991661 -418.375 178.25 C-418.35614746 176.92790527 -418.35614746 176.92790527 -418.33691406 175.57910156 C-417.45609008 122.49597465 -397.8451825 70.35209115 -364.375 29.25 C-363.89627441 28.65558105 -363.41754883 28.06116211 -362.92431641 27.44873047 C-351.31787828 13.12323106 -338.18561736 -0.72040003 -323.375 -11.75 C-322.72595703 -12.23774902 -322.07691406 -12.72549805 -321.40820312 -13.22802734 C-311.4175487 -20.70755367 -301.26213943 -27.64592517 -290.375 -33.75 C-289.72241211 -34.1207666 -289.06982422 -34.4915332 -288.39746094 -34.87353516 C-203.43982215 -82.82821967 -94.60496701 -72.52028799 0 0 Z " fill="#202938" transform="translate(418.375,64.75)"/>
<path d="M0 0 C2.22207403 2.06905498 4.42652626 4.15590866 6.625 6.25 C7.17478516 6.77110352 7.72457031 7.29220703 8.29101562 7.82910156 C16.04844684 15.22646399 22.8895256 22.98953589 29.32958984 31.55322266 C30.5701629 33.17817229 31.85648936 34.76788224 33.14453125 36.35546875 C40.4012331 45.37206365 46.09941567 55.09644282 51.625 65.25 C51.98835449 65.91338379 52.35170898 66.57676758 52.72607422 67.26025391 C63.11077702 86.44386717 70.66607997 107.03728429 75.625 128.25 C75.82319336 129.08305664 76.02138672 129.91611328 76.22558594 130.77441406 C90.83004765 193.40366558 78.68440409 261.44726326 45.625 316.25 C42.18518443 321.74993782 38.49470076 327.04529433 34.625 332.25 C34.17801758 332.85247559 33.73103516 333.45495117 33.27050781 334.07568359 C26.60110673 342.98022233 19.34251161 351.24407314 11.625 359.25 C11.09084473 359.80606934 10.55668945 360.36213867 10.00634766 360.93505859 C2.94386691 368.24939601 -4.31300465 375.02711119 -12.375 381.25 C-13.28378906 381.96414063 -14.19257813 382.67828125 -15.12890625 383.4140625 C-50.56331483 410.70096761 -92.74356044 428.7572887 -137.25732422 433.99975586 C-138.62041996 434.16083185 -139.9818084 434.33751609 -141.34033203 434.53344727 C-149.18515687 435.58621192 -157.10033928 435.44974559 -165 435.4375 C-165.77711334 435.43656342 -166.55422668 435.43562683 -167.35488892 435.43466187 C-204.45877576 435.33795156 -240.90057839 428.91827666 -274.375 412.25 C-275.28378906 411.80108398 -276.19257813 411.35216797 -277.12890625 410.88964844 C-289.42673153 404.76939251 -301.23287194 398.29709249 -312.375 390.25 C-313.39335937 389.52425781 -314.41171875 388.79851562 -315.4609375 388.05078125 C-334.26294132 374.3070593 -352.44268062 357.96997095 -366.375 339.25 C-367.07254395 338.34241943 -367.07254395 338.34241943 -367.78417969 337.41650391 C-392.41282362 305.32486938 -408.14987988 267.97602441 -415.375 228.25 C-415.60832031 226.98414063 -415.84164063 225.71828125 -416.08203125 224.4140625 C-418.53799718 209.25421526 -418.68231373 193.56991661 -418.375 178.25 C-418.35614746 176.92790527 -418.35614746 176.92790527 -418.33691406 175.57910156 C-417.45609008 122.49597465 -397.8451825 70.35209115 -364.375 29.25 C-363.89627441 28.65558105 -363.41754883 28.06116211 -362.92431641 27.44873047 C-351.31787828 13.12323106 -338.18561736 -0.72040003 -323.375 -11.75 C-322.72595703 -12.23774902 -322.07691406 -12.72549805 -321.40820312 -13.22802734 C-311.4175487 -20.70755367 -301.26213943 -27.64592517 -290.375 -33.75 C-289.72241211 -34.1207666 -289.06982422 -34.4915332 -288.39746094 -34.87353516 C-203.43982215 -82.82821967 -94.60496701 -72.52028799 0 0 Z M-205.90283203 -50.19433594 C-208.33600079 -49.75700954 -210.77349688 -49.36523956 -213.21484375 -48.9765625 C-234.05232214 -45.44407373 -254.44732578 -38.07459698 -273.375 -28.75 C-274.07206055 -28.41033203 -274.76912109 -28.07066406 -275.48730469 -27.72070312 C-298.24624574 -16.51341166 -318.07929306 -1.21052488 -336.375 16.25 C-337.24769531 17.08144531 -338.12039063 17.91289063 -339.01953125 18.76953125 C-353.51043341 32.9042822 -365.49865557 49.62121251 -375.375 67.25 C-375.808125 68.01521973 -376.24125 68.78043945 -376.6875 69.56884766 C-390.43408462 94.0695963 -400.37390586 121.36257421 -404.375 149.25 C-404.47796387 149.94722168 -404.58092773 150.64444336 -404.68701172 151.36279297 C-407.83175587 173.70389002 -408.00569008 197.9748605 -404.375 220.25 C-404.2296582 221.16668457 -404.08431641 222.08336914 -403.93457031 223.02783203 C-394.50479886 280.38756954 -363.47908544 335.36252817 -317.375 371.25 C-316.40433594 372.03761719 -315.43367188 372.82523437 -314.43359375 373.63671875 C-288.12137035 394.6140483 -256.80576501 408.78103339 -224.375 417.25 C-223.30636719 417.53359375 -222.23773438 417.8171875 -221.13671875 418.109375 C-190.41131968 425.46246196 -157.42989311 425.17199088 -126.375 420.25 C-125.60220703 420.13205078 -124.82941406 420.01410156 -124.03320312 419.89257812 C-86.02121348 413.75937651 -47.61112551 394.85113 -18.375 370.25 C-17.20578672 369.28508651 -16.03651468 368.32024421 -14.8671875 367.35546875 C-2.88527131 357.36999042 8.09123156 346.62292791 17.625 334.25 C18.0876123 333.65848145 18.55022461 333.06696289 19.02685547 332.45751953 C26.31780184 323.11666178 32.84692271 313.59409388 38.625 303.25 C39.01896973 302.55632324 39.41293945 301.86264648 39.81884766 301.14794922 C67.06310347 252.86849312 75.23369955 197.82590656 66.625 143.25 C66.5017334 142.46367187 66.3784668 141.67734375 66.25146484 140.8671875 C59.97006854 103.33016861 42.15606925 66.01542406 17.96630859 36.86767578 C16.63723777 35.26475928 15.32777127 33.64728019 14.01953125 32.02734375 C3.47905196 19.12015461 -8.22959433 7.48204351 -21.62451172 -2.44384766 C-23.38389686 -3.75663852 -25.11648179 -5.09951419 -26.84765625 -6.44921875 C-47.38983964 -22.25241809 -70.93285242 -33.4380946 -95.375 -41.75 C-96.04901855 -41.98315918 -96.72303711 -42.21631836 -97.41748047 -42.45654297 C-106.95467477 -45.70076227 -116.65919138 -47.69654919 -126.5625 -49.5 C-127.71419678 -49.71092285 -128.86589355 -49.9218457 -130.05249023 -50.13916016 C-143.27652194 -52.43530639 -156.47070986 -52.98626692 -169.875 -53 C-170.56887817 -53.00100708 -171.26275635 -53.00201416 -171.97766113 -53.00305176 C-183.44630789 -52.99189229 -194.60192624 -52.22758074 -205.90283203 -50.19433594 Z " fill="#F6F6F6" transform="translate(418.375,64.75)"/>
<path d="M0 0 C57.32922535 0 57.32922535 0 72.75 14.25 C87.11516643 29.62917818 87.83212493 47.5782903 87.22216797 67.50439453 C86.50700108 78.75687751 82.36185342 88.43683995 75 97 C74.40445313 97.71671875 73.80890625 98.4334375 73.1953125 99.171875 C65.45944372 107.7102198 55.84107142 110.74767857 45 114 C30.15 114 15.3 114 0 114 C0 76.38 0 38.76 0 0 Z " fill="#FAFBFB" transform="translate(221,165)"/>
<path d="M0 0 C7.92 0 15.84 0 24 0 C24 15.18 24 30.36 24 46 C38.85 46 53.7 46 69 46 C69 30.82 69 15.64 69 0 C76.92 0 84.84 0 93 0 C93 37.62 93 75.24 93 114 C85.41 114 77.82 114 70 114 C70 97.83 70 81.66 70 65 C54.82 65 39.64 65 24 65 C24 81.17 24 97.34 24 114 C16.08 114 8.16 114 0 114 C0 76.38 0 38.76 0 0 Z " fill="#FAFBFB" transform="translate(108,165)"/>
<path d="M0 0 C7.92 0 15.84 0 24 0 C24 31.35 24 62.7 24 95 C40.5 95 57 95 74 95 C74 101.27 74 107.54 74 114 C49.58 114 25.16 114 0 114 C0 76.38 0 38.76 0 0 Z " fill="#FAFAFB" transform="translate(325,165)"/>
<path d="M0 0 C23.90059673 0 23.90059673 0 31.46484375 7.1171875 C38.65593073 15.93679036 39.23128832 24.96015045 39.3125 35.875 C39.34150391 37.13570312 39.37050781 38.39640625 39.40039062 39.6953125 C39.47054591 50.18622625 38.42809912 61.75927482 30.70703125 69.63671875 C21.32309267 77.13098549 12.12745359 76 0 76 C0 50.92 0 25.84 0 0 Z " fill="#212A38" transform="translate(245,184)"/>
<path d="M0 0 C3.93897124 2.28088273 6.64297947 5.34586105 8.625 9.4375 C10.62490572 17.29610388 10.61127518 25.08364397 6.8828125 32.37109375 C3.08540625 38.60968974 -1.21273239 43.29135953 -8.375 45.4375 C-15.1712803 46.48724393 -20.74717718 45.43690187 -26.375 41.4375 C-31.31440847 36.49809153 -32.48804569 31.50704376 -32.75 24.6875 C-32.58195212 16.71016806 -30.52452966 10.35526647 -25 4.5 C-17.77210838 -1.96545579 -9.15947224 -4.02461659 0 0 Z " fill="#F6F7F8" transform="translate(264.375,326.5625)"/>
<path d="M0 0 C3.63 0 7.26 0 11 0 C11.33 8.58 11.66 17.16 12 26 C13.17369141 23.31037109 13.17369141 23.31037109 14.37109375 20.56640625 C15.39310629 18.23171704 16.41524839 15.89708454 17.4375 13.5625 C17.95376953 12.37849609 18.47003906 11.19449219 19.00195312 9.97460938 C19.49501953 8.84990234 19.98808594 7.72519531 20.49609375 6.56640625 C20.95169678 5.52427979 21.4072998 4.48215332 21.87670898 3.40844727 C23 1 23 1 24 0 C25.51928038 -0.07179964 27.04167482 -0.08392007 28.5625 -0.0625 C29.38878906 -0.05347656 30.21507812 -0.04445313 31.06640625 -0.03515625 C31.70449219 -0.02355469 32.34257812 -0.01195312 33 0 C33.08564209 0.65597168 33.17128418 1.31194336 33.25952148 1.98779297 C33.64846501 4.950697 34.04291273 7.91284253 34.4375 10.875 C34.57220703 11.90753906 34.70691406 12.94007813 34.84570312 14.00390625 C34.97783203 14.99003906 35.10996094 15.97617187 35.24609375 16.9921875 C35.36654053 17.90339355 35.4869873 18.81459961 35.61108398 19.75341797 C35.89362951 22.02733424 35.89362951 22.02733424 37 24 C39.97 16.08 42.94 8.16 46 0 C49.96 0 53.92 0 58 0 C56.04898334 6.04109978 53.89271087 11.9065857 51.42578125 17.75390625 C51.09708542 18.54022934 50.76838959 19.32655243 50.42973328 20.13670349 C49.39368719 22.61325185 48.35318065 25.08789611 47.3125 27.5625 C46.60321793 29.25573471 45.89423091 30.94909303 45.18554688 32.64257812 C43.46043384 36.76315368 41.73132184 40.88202954 40 45 C36.37 45 32.74 45 29 45 C28.01 36.42 27.02 27.84 26 19 C24.783125 21.43375 23.56625 23.8675 22.3125 26.375 C19.20833333 32.58333333 16.10416667 38.79166667 13 45 C9.7 45 6.4 45 3 45 C1.85234296 39.04459049 1.42034743 33.03738453 0.9375 27 C0.84807129 25.88890869 0.75864258 24.77781738 0.66650391 23.63305664 C0.06020729 15.71482281 -0.18260698 7.94340372 0 0 Z " fill="#F7F9F9" transform="translate(282,326)"/>
<path d="M0 0 C12.54 0 25.08 0 38 0 C37.67 3.63 37.34 7.26 37 11 C28.09 11 19.18 11 10 11 C9.67 14.3 9.34 17.6 9 21 C8.67 22.65 8.34 24.3 8 26 C15.59 26 23.18 26 31 26 C30.67 29.3 30.34 32.6 30 36 C22.08 36 14.16 36 6 36 C5.67 39.3 5.34 42.6 5 46 C4.51914384 48.71571614 4.00195735 51.42542138 3.4375 54.125 C3.29892578 54.7953125 3.16035156 55.465625 3.01757812 56.15625 C2.68293224 57.77178185 2.34215896 59.38604266 2 61 C-1.96 61 -5.92 61 -10 61 C-10.17167898 55.47827153 -9.53332928 50.41303927 -8.5390625 44.98828125 C-8.38843353 44.13880417 -8.23780457 43.28932709 -8.08261108 42.41410828 C-7.60236731 39.71253185 -7.11393544 37.01251551 -6.625 34.3125 C-6.14620804 31.6363431 -5.66909731 28.95989005 -5.19207764 26.28341675 C-4.88406425 24.55804507 -4.57487815 22.83288229 -4.26446533 21.10794067 C-3.24796203 15.4504233 -2.29240167 9.78605199 -1.40771484 4.10620117 C-1 2 -1 2 0 0 Z " fill="#F5F6F7" transform="translate(173,310)"/>
<path d="M0 0 C3.96 0 7.92 0 12 0 C11.25249109 6.36673 10.27412098 12.67690331 9.22265625 19 C8.96554115 20.55267578 8.96554115 20.55267578 8.70323181 22.13671875 C8.34182409 24.31524555 7.97954989 26.49362876 7.61645508 28.671875 C7.06432972 31.98900714 6.51740169 35.30696972 5.97070312 38.625 C5.6175056 40.7500529 5.26400025 42.87505466 4.91015625 45 C4.74862564 45.98355469 4.58709503 46.96710938 4.42066956 47.98046875 C3.51147878 53.39993139 2.41199098 58.68869044 1 64 C-2.96 64 -6.92 64 -11 64 C-9.18449121 49.8909031 -6.82523862 35.88508713 -4.375 21.875 C-4.21716034 20.96830566 -4.05932068 20.06161133 -3.896698 19.12744141 C-3.44185275 16.51933594 -2.98339413 13.9118959 -2.5234375 11.3046875 C-2.3849791 10.51174286 -2.24652069 9.71879822 -2.10386658 8.90182495 C-1.56039986 5.84665729 -0.9828646 2.9485938 0 0 Z " fill="#F7F8F9" transform="translate(219,307)"/>
<path d="M0 0 C2.64090136 2.099178 3.77247461 3.66328834 4.34375 7.01953125 C4.6300798 13.83179449 3.32063764 20.42848261 -1.3125 25.5625 C-4.59619813 27.31889667 -6.33376977 27.70204409 -10 27 C-12.87355621 24.80702289 -13.8495425 23.08194156 -14.34765625 19.5 C-14.56575963 12.67241595 -13.91461546 6.3309891 -9.25 1 C-5.92464079 -0.47793743 -3.59084215 -0.51297745 0 0 Z " fill="#222B39" transform="translate(258,335)"/>
<path d="M0 0 C0.99 0.33 1.98 0.66 3 1 C2.67 4.96 2.34 8.92 2 13 C1.34 12.34 0.68 11.68 0 11 C-0.99 11.66 -1.98 12.32 -3 13 C-3.99 13 -4.98 13 -6 13 C-5.67 10.36 -5.34 7.72 -5 5 C-4.01 6.485 -4.01 6.485 -3 8 C-0.98513431 4.12479873 -0.98513431 4.12479873 0 0 Z " fill="#2D3541" transform="translate(215,310)"/>
<path d="M0 0 C-0.33 1.32 -0.66 2.64 -1 4 C-1.66 3.67 -2.32 3.34 -3 3 C-3.99 4.485 -3.99 4.485 -5 6 C-5.66 6 -6.32 6 -7 6 C-7 6.66 -7 7.32 -7 8 C-8.32 8.33 -9.64 8.66 -11 9 C-10.51780822 3.57534247 -10.51780822 3.57534247 -8.3125 1.125 C-5.40422845 -0.28983481 -3.19384754 -0.21776233 0 0 Z " fill="#2A313E" transform="translate(257,335)"/>
<path d="M0 0 C0.66 1.32 1.32 2.64 2 4 C1.21625 4.763125 0.4325 5.52625 -0.375 6.3125 C-3.07257717 8.90891805 -3.07257717 8.90891805 -5 12 C-5.66 11.67 -6.32 11.34 -7 11 C-7 7.22089522 -6.00296038 6.53893899 -3.5 3.8125 C-2.8503125 3.09707031 -2.200625 2.38164063 -1.53125 1.64453125 C-1.0259375 1.10183594 -0.520625 0.55914062 0 0 Z " fill="#2F3540" transform="translate(74,89)"/>
<path d="M0 0 C2.64752004 2.57784846 4.94432065 4.91648098 7 8 C6.01 8.66 5.02 9.32 4 10 C1.24049934 7.50754779 -0.62030099 5.79699009 -1 2 C-0.67 1.34 -0.34 0.68 0 0 Z " fill="#29313C" transform="translate(434,100)"/>
<path d="M0 0 C3.97712421 1.46525629 6.01775116 3.01775116 9 6 C8.625 8.125 8.625 8.125 8 10 C4.71211176 6.88983545 2.16264012 3.98381075 0 0 Z " fill="#2A323D" transform="translate(61,394)"/>
<path d="M0 0 C0.33 1.32 0.66 2.64 1 4 C0.34 4 -0.32 4 -1 4 C-1.103125 4.515625 -1.20625 5.03125 -1.3125 5.5625 C-2.24263866 8.86026435 -3.61395512 11.86633332 -5 15 C-5.99 14.67 -6.98 14.34 -8 14 C-5.36 9.38 -2.72 4.76 0 0 Z " fill="#2E343E" transform="translate(46,127)"/>
<path d="M0 0 C0.66 0 1.32 0 2 0 C1.67 3.63 1.34 7.26 1 11 C0.34 10.67 -0.32 10.34 -1 10 C-1.02689216 8.52093108 -1.04634621 7.04172517 -1.0625 5.5625 C-1.07410156 4.73878906 -1.08570313 3.91507812 -1.09765625 3.06640625 C-1 1 -1 1 0 0 Z " fill="#2D353F" transform="translate(164,349)"/>
<path d="M0 0 C2.31 1.65 4.62 3.3 7 5 C6.01 5.99 5.02 6.98 4 8 C2.5 6.625 2.5 6.625 1 5 C1 4.34 1 3.68 1 3 C0.34 3 -0.32 3 -1 3 C-0.67 2.01 -0.34 1.02 0 0 Z " fill="#2B323F" transform="translate(397,63)"/>
<path d="M0 0 C1.32 1.32 2.64 2.64 4 4 C2 6 2 6 -1 7 C-1.625 5.1875 -1.625 5.1875 -2 3 C-1.34 2.01 -0.68 1.02 0 0 Z " fill="#2D3640" transform="translate(276,192)"/>
<path d="M0 0 C2.4375 1.1875 2.4375 1.1875 3.4375 3.1875 C2.4475 3.1875 1.4575 3.1875 0.4375 3.1875 C0.1075 3.8475 -0.2225 4.5075 -0.5625 5.1875 C-1.8825 3.5375 -3.2025 1.8875 -4.5625 0.1875 C-2.5625 -0.8125 -2.5625 -0.8125 0 0 Z " fill="#28313C" transform="translate(294.5625,175.8125)"/>
<path d="M0 0 C1.32 0.33 2.64 0.66 4 1 C3.25 6.75 3.25 6.75 1 9 C0.67 6.03 0.34 3.06 0 0 Z " fill="#29313A" transform="translate(317,343)"/>
<path d="M0 0 C1.125 3.75 1.125 3.75 0 6 C-0.66 6 -1.32 6 -2 6 C-2 6.66 -2 7.32 -2 8 C-3.65 8.66 -5.3 9.32 -7 10 C-6.57847656 9.44570313 -6.15695312 8.89140625 -5.72265625 8.3203125 C-5.17480469 7.59585937 -4.62695312 6.87140625 -4.0625 6.125 C-3.51722656 5.40570313 -2.97195313 4.68640625 -2.41015625 3.9453125 C-0.96035376 2.05642921 -0.96035376 2.05642921 0 0 Z " fill="#3F444E" transform="translate(300,255)"/>
<path d="M0 0 C0.556875 0.226875 1.11375 0.45375 1.6875 0.6875 C-0.44714912 3.14234649 -2.01970291 4.36884222 -5.3125 4.6875 C-5.9725 4.0275 -6.6325 3.3675 -7.3125 2.6875 C-2.88173077 -0.38942308 -2.88173077 -0.38942308 0 0 Z " fill="#2B323C" transform="translate(139.3125,40.3125)"/>
<path d="M0 0 C1.32 0.66 2.64 1.32 4 2 C3.67 2.99 3.34 3.98 3 5 C0.69 4.34 -1.62 3.68 -4 3 C-2.68 2.01 -1.36 1.02 0 0 Z " fill="#323844" transform="translate(157,465)"/>
<path d="M0 0 C4 0 4 0 5.75 1.375 C7 3 7 3 7 5 C1.25 3.25 1.25 3.25 -1 1 C-0.67 0.67 -0.34 0.34 0 0 Z " fill="#303641" transform="translate(144,461)"/>
<path d="M0 0 C0.33 0.99 0.66 1.98 1 3 C-2.75 6 -2.75 6 -5 6 C-5 5.01 -5 4.02 -5 3 C-2.5 1.3125 -2.5 1.3125 0 0 Z " fill="#2D3540" transform="translate(386,442)"/>
<path d="M0 0 C0.33 0.66 0.66 1.32 1 2 C1.66 2.33 2.32 2.66 3 3 C1.35 4.32 -0.3 5.64 -2 7 C-2.33 6.01 -2.66 5.02 -3 4 C-2.34 4 -1.68 4 -1 4 C-0.67 2.68 -0.34 1.36 0 0 Z " fill="#2D3540" transform="translate(421,410)"/>
<path d="M0 0 C0.33 0.99 0.66 1.98 1 3 C-0.32 3.99 -1.64 4.98 -3 6 C-3.66 5.67 -4.32 5.34 -5 5 C-4.34 3.68 -3.68 2.36 -3 1 C-2.01 1.33 -1.02 1.66 0 2 C0 1.34 0 0.68 0 0 Z " fill="#2E3640" transform="translate(432,400)"/>
<path d="M0 0 C2.475 0.99 2.475 0.99 5 2 C3.515 4.475 3.515 4.475 2 7 C0.5393715 4.35261084 0 3.10551666 0 0 Z " fill="#2A313C" transform="translate(434,392)"/>
<path d="M0 0 C0.99 0 1.98 0 3 0 C1.92598892 2.91517292 1.22189824 4.77810176 -1 7 C-1.04254356 5.00045254 -1.04080783 2.99958364 -1 1 C-0.67 0.67 -0.34 0.34 0 0 Z " fill="#323945" transform="translate(278,244)"/>
<path d="M0 0 C0.66 1.32 1.32 2.64 2 4 C0.75 6.75 0.75 6.75 -1 9 C-1.66 9 -2.32 9 -3 9 C-2.01 6.03 -1.02 3.06 0 0 Z " fill="#3A3E4A" transform="translate(32,153)"/>
</svg>
